<svg xmlns="http://www.w3.org/2000/svg" id="Ebene_1" width="16" height="10" version="1.1"><defs id="defs1"><style id="style1">.st0{fill:#2f2c35}</style></defs><g id="Gruppe_21" transform="translate(-273.3 -278.2)"><g id="Gruppe_11"><g id="Gruppe_10"><path id="Polygon_6" d="M274.9 284c-.5-.3-.7-.9-.4-1.4 0-.2.2-.3.4-.4l5.9-3.3c.5-.3 1.1 0 1.4.4 0 .1.1.3.1.5v6.6c0 .6-.4 1-1 1-.2 0-.3 0-.5-.1z" class="st0"/><path id="Polygon_5" d="M281.9 284c-.5-.3-.7-.9-.4-1.4 0-.2.2-.3.4-.4l5.9-3.3c.5-.3 1.1 0 1.4.4 0 .1.1.3.1.5v6.6c0 .6-.4 1-1 1-.2 0-.3 0-.5-.1z" class="st0"/><path id="Rechteck_43" d="M273.3 278.2h1v10h-1z" class="st0"/></g></g></g></svg>