<svg xmlns="http://www.w3.org/2000/svg" id="Ebene_1" width="23" height="23" version="1.1"><defs id="defs1"><style id="style1">.st0{fill:#2f2c35}</style></defs><g id="Ellipse_8" transform="translate(-262 -255)"><circle id="circle1" cx="273.5" cy="266.5" r="11.5" style="fill:#fffffe"/><path id="path1" d="M273.5 278c-6.3 0-11.5-5.2-11.5-11.5s5.2-11.5 11.5-11.5 11.5 5.2 11.5 11.5-5.2 11.5-11.5 11.5m0-22c-5.8 0-10.5 4.7-10.5 10.5s4.7 10.5 10.5 10.5 10.5-4.7 10.5-10.5-4.7-10.5-10.5-10.5" class="st0"/></g><path id="path2" d="M17 18.1c-.3 0-.5 0-.7-.3L5.5 7c-.4-.4-.4-1 0-1.4s1-.4 1.4 0l10.8 10.8c.4.4.4 1 0 1.4s-.5.3-.7.3" class="st0"/><path id="path3" d="M6.1 18c-.3 0-.5-.1-.7-.3-.4-.4-.4-1 0-1.4L16.3 5.7c.4-.4 1-.4 1.4 0s.4 1 0 1.4L6.8 17.7c-.2.2-.4.3-.7.3" class="st0"/></svg>