<svg xmlns="http://www.w3.org/2000/svg" preserveAspectRatio="xMidYMid meet" id="Ebene_1" width="654.4" height="453" version="1.1"><defs id="defs1"><style id="style1">.st0{fill:#2f2c36}</style></defs><path id="path1" d="M0 14.1h83.7c47.8 0 77.2 24.6 77.2 61s-22.1 56.5-60.7 57.6c13.4 20.1 29.7 29.9 55.7 30.2 4.2 0 8.4-.3 12.3-.6l-4.2 49c-6.2 1.7-14.8 2.5-20.4 2.5-43.6 0-72.7-39.4-89-79.2v75.3H0Zm79.2 96.3c16.8 0 27.1-11.8 27.1-27.4S94.8 55.6 73 55.6H54.5v46.7c6.7 4.5 15.1 8.1 24.6 8.1zm160.9-40.3V210h-51.2V70.1Zm94.5 28.8c-14.6 0-23.2 13.4-23.2 36.1s9.2 31.9 26.6 33.6c18.2 1.4 48.7-8.4 58.2-12.3l-3.6 44.5c-19.3 7-43.4 12-59.9 12-44.5 0-71.6-26.3-71.6-73s28-75.5 71.6-75.5 63.2 21.5 63.2 55.7l-45.6 10.9s.8-31.9-15.7-31.9zm149.6 2.8c-8.7 0-14.5 5.6-19.6 12.3v96h-51.2V5.7h51.2v94c8.1-20.7 24.1-34.1 44.2-34.1 28.5 0 48.1 19.9 48.1 51.8V210h-51.5v-82.3c0-16.2-7.6-26-21.3-26zM60.5 241.2h28.1c56.2 0 86.4 28.1 86.4 74.2s-24 73.7-71.6 73.7-32.2-4.7-42.9-12.7v71.9H2.8V241.2Zm25.7 116.6c16.6 0 30.2-12.4 30.2-35.8s-14.5-37-36.7-37H60.5v64.8c7.1 4.1 16 8 25.7 8m92.9 17.7c0-51.2 29.9-79.9 78.4-79.9s78.7 28.7 78.7 79.9-30.2 77.2-78.7 77.2-78.4-27.8-78.4-77.2m78.4 40.6c14.5 0 22.5-16 22.5-42s-8-41.7-22.5-41.7-22.5 15.1-22.5 41.7 8.3 42 22.5 42M505 232.4v215.9h-56.2v-28.1c-8.3 20.1-24.8 32.8-45.6 32.8-30.8 0-55.6-26.9-55.6-78.7s24.8-78.7 55.6-78.7 37 13 45.6 32.2v-95.5H505Zm-77.5 182.5c14.2 0 21.3-12.7 21.3-28.7v-37.9c-5.3-8.3-11.5-14.5-21.3-14.5-13.9 0-24 16.3-24 40.5s10.1 40.5 24 40.5zm159.2-87.3c-10.1 0-15.4 3.3-15.4 8.9s14.5 12.4 36.1 19.2c32.5 10.1 47 26 47 47 0 31.4-22.5 50.3-64.8 50.3s-43.8-5-65.1-16.6l3-35.8c25.1 16.9 47.3 20.7 62.1 20.7s17.2-3.5 17.2-9.8-16-13.3-40.5-21.6c-26.3-9.2-41.1-22.5-41.1-46.4s20.1-47.6 57.7-47.6 45.6 6.5 64.5 17.5l-3.3 35.8c-22.5-14.8-43.5-21.6-57.4-21.6" class="st0"/><circle id="circle1" cx="186.4" cy="28.1" r="28.1" class="st0"/></svg>