<svg xmlns="http://www.w3.org/2000/svg" id="Ebene_1" width="949.775" height="485.3" version="1.1"><defs id="defs1"><style id="style1">.st1{fill:#fff}</style></defs><path id="path1" d="m262.875 485.3 59.7-274.1c-13.9-3-27.7-2.1-40.2 2-1.8.6-3-1.8-1.5-2.9l34.9-26.4-46.4-61.4-15.3 11.6c-1.2.9-2.8-.5-2.1-1.8 7-12.9 6-29.4-4-41.6-12.1-14.6-33.7-17.8-49.5-7.1q-2.25 1.5-4.2 3.3c-1.95 1.8-2.7-.2-2.1-1.6l5.5-11.8c10.6-22.7.8-49.7-21.8-60.3L147.375 0 4.275 305.4c-10.6 22.7-.8 49.6 21.8 60.3l28.5 13.3 23.9-51.1c.4-.8 1.6-.4 1.4.4-1.6 10.4 1.1 21.4 8.3 30.2l47.6 57.9c13.5 16.4 37.8 18.8 54.2 5.3 2.2-1.8 4.2-3.8 5.8-6 1.2-1.5 3.6-.4 3.2 1.5l-11.3 51.7 75 16.4zm-137.4-257.4 54.9-117.2c.5-1 2-.6 1.9.5-.9 9.3 1.7 18.9 8.1 26.7 9.3 11.5 24.2 16.1 37.9 12.8 1.3-.3 2.1 1.4 1 2.2l-99.3 75.1c-.7.5-1.4 1.1-2.1 1.7-1.3 1.1-3.1-.3-2.4-1.8m-11 23.3c.4-.8 1.5-.4 1.4.4-1.4 9.3.8 19.2 6.9 27.3.2.3.2.8-.1 1.1l-29.1 24.5c-.8.6-1.5 1.3-2.2 2-1 1-2.6-.2-2-1.5l25.2-53.7zm88.7 132.3c-1.3-5.7-3.9-11.1-7.8-15.9l-58.6-72.4c-.9-1.2.3-2.8 1.7-2.1 11.9 5.8 26.6 4.9 37.9-3.7l64.1-48.5c1.4-1.1 3.3.7 2.3 2.2-5.4 7.9-9.4 17-11.5 26.9l-24.7 113.4c-.4 1.8-2.9 1.8-3.3 0z" style="fill:#fff"/><circle id="circle1" cx="175.575" cy="241.7" r="37.2" style="fill:#fff"/><path id="path2" d="M364.375 55.8h74.8c42.8 0 69.1 22 69.1 54.6s-19.8 50.6-54.3 51.6c12 18 26.5 26.8 49.8 27 3.8 0 7.5-.2 11-.5l-3.8 43.8c-5.5 1.5-13.3 2.3-18.3 2.3-39 0-65.1-35.3-79.6-70.8v67.3h-48.8V55.8Zm70.8 86.1c15 0 24.3-10.5 24.3-24.5s-10.3-24.5-29.8-24.5h-16.5v41.8c6 4 13.5 7.3 22 7.3zm143.9-36.1v125.1h-45.8V105.8Zm84.6 25.8c-13 0-20.8 12-20.8 32.3s8.3 28.5 23.8 30c16.3 1.3 43.6-7.5 52.1-11l-3.3 39.8c-17.3 6.3-38.8 10.8-53.6 10.8-39.8 0-64.1-23.5-64.1-65.3s25-67.6 64.1-67.6 56.6 19.3 56.6 49.8l-40.8 9.8s.8-28.5-14-28.5zm133.9 2.5c-7.8 0-13 5-17.5 11V231h-45.8V48.3h45.8v84.1c7.3-18.5 21.5-30.5 39.5-30.5 25.5 0 43.1 17.8 43.1 46.3V231h-46.1v-73.6c0-14.5-6.8-23.3-19-23.3m-379.1 124.8h25.1c50.3 0 77.3 25.1 77.3 66.4s-21.4 65.9-64 65.9-28.8-4.2-38.4-11.4v64.3h-51.6V258.9Zm23 104.3c14.8 0 27-11.1 27-32s-13-33.1-32.8-33.1h-17.2v58c6.4 3.7 14.3 7.1 23 7.1m83.1 15.9c0-45.8 26.7-71.4 70.1-71.4s70.4 25.7 70.4 71.4-27 69.1-70.4 69.1-70.1-24.9-70.1-69.1m70.1 36.2c13 0 20.1-14.3 20.1-37.6s-7.1-37.3-20.1-37.3-20.1 13.5-20.1 37.3 7.4 37.6 20.1 37.6m221.4-164.3v193.2h-50.3v-25.1c-7.4 18-22.2 29.4-40.8 29.4-27.5 0-49.7-24.1-49.7-70.4s22.2-70.4 49.7-70.4 33.1 11.6 40.8 28.8V251Zm-69.3 163.3c12.7 0 19.1-11.4 19.1-25.7v-33.9c-4.8-7.4-10.3-13-19.1-13-12.4 0-21.4 14.6-21.4 36.3s9 36.3 21.4 36.3m142.4-78.1c-9 0-13.8 2.9-13.8 7.9s13 11.1 32.3 17.2c29.1 9 42.1 23.3 42.1 42.1 0 28-20.1 45-58 45s-39.2-4.5-58.2-14.8l2.6-32c22.5 15.1 42.3 18.5 55.6 18.5s15.3-3.2 15.3-8.7-14.3-11.9-36.3-19.3c-23.6-8.2-36.8-20.1-36.8-41.5s18-42.6 51.6-42.6 40.7 5.8 57.7 15.6l-2.9 32c-20.1-13.2-38.9-19.3-51.3-19.3z" class="st1"/><circle id="circle2" cx="531.075" cy="68.3" r="25.1" class="st1"/></svg>