<svg xmlns="http://www.w3.org/2000/svg" width="500" height="500"><g transform="translate(62.187 7.35)"><path d="m283.4 485.3 59.7-274.1c-13.9-3-27.7-2.1-40.2 2-1.8.6-3-1.8-1.5-2.9l34.9-26.4-46.4-61.4-15.3 11.6c-1.2.9-2.8-.5-2.1-1.8 7-12.9 6-29.4-4-41.6-12.1-14.6-33.7-17.8-49.5-7.1q-2.25 1.5-4.2 3.3c-1.3 1.2-2.7-.2-2.1-1.6l5.5-11.8c10.6-22.7.8-49.7-21.8-60.3L167.9 0 24.8 305.4c-10.6 22.7-.8 49.6 21.8 60.3L75.1 379 99 327.9c.4-.8 1.6-.4 1.4.4-1.6 10.4 1.1 21.4 8.3 30.2l47.6 57.9c13.5 16.4 37.8 18.8 54.2 5.3 2.2-1.8 4.2-3.8 5.8-6 1.2-1.5 3.6-.4 3.2 1.5l-11.3 51.7 75 16.4zM146 227.9l54.9-117.2c.5-1 2-.6 1.9.5-.9 9.3 1.7 18.9 8.1 26.7 9.3 11.5 24.2 16.1 37.9 12.8 1.3-.3 2.1 1.4 1 2.2L150.5 228c-.7.5-1.4 1.1-2.1 1.7-1.3 1.1-3.1-.3-2.4-1.8m-11 23.3c.4-.8 1.5-.4 1.4.4-1.4 9.3.8 19.2 6.9 27.3.2.3.2.8-.1 1.1l-29.1 24.5c-.8.6-1.5 1.3-2.2 2-1 1-2.6-.2-2-1.5l25.2-53.7zm88.7 132.3c-1.3-5.7-3.9-11.1-7.8-15.9l-58.6-72.4c-.9-1.2.3-2.8 1.7-2.1 11.9 5.8 26.6 4.9 37.9-3.7l64.1-48.5c1.4-1.1 3.3.7 2.3 2.2-5.4 7.9-9.4 17-11.5 26.9l-24.7 113.4c-.4 1.8-2.9 1.8-3.3 0z" style="fill:#aebc43"/><circle cx="196.1" cy="241.7" r="37.2" style="fill:#2d3135"/></g></svg>